<svg class="icon" width="64" height="64" viewBox="0 0 1024 1024" xmlns="http://www.w3.org/2000/svg"><path d="M874.67 85.33a64 64 0 0164 64v725.34a64 64 0 01-64 64H149.33a64 64 0 01-64-64V149.33a64 64 0 0164-64h725.34zm0 64H149.33v725.34h725.34V149.33zM512 266.67a32 32 0 0131.85 28.92l.15 3.08V480h181.33a32 32 0 0131.85 28.93l.15 3.07a32 32 0 01-28.93 31.85l-3.07.15H544v181.33a32 32 0 01-63.85 3.07l-.15-3.07V544H298.67a32 32 0 01-31.85-28.93l-.15-3.07a32 32 0 0128.92-31.85l3.08-.15H480V298.67a32 32 0 0132-32z"/></svg>