<svg class="icon" viewBox="0 0 1024 1024" xmlns="http://www.w3.org/2000/svg" width="16" height="16"><defs><style/></defs><path d="M555.15 18.54A151.75 151.75 0 01725.72 35.8a197.53 197.53 0 0123.94 23.26c23.55 26.72 36.38 56.03 39.2 89.57a58.68 58.68 0 01-15.6 46.33 57.96 57.96 0 01-46.76 17.55c-15.8-.83-27.84-9.26-36.82-25.7-3.56-6.58-6.48-13.4-9.55-20.33a312.76 312.76 0 00-7.32-15.95c-11.5-22.57-24.28-33.15-42.52-35.1-10.92-1.66-18.87 3.65-26.43 9.31a43.54 43.54 0 01-3.26 2.15 23.55 23.55 0 00-3.22 2.29c-10.58 9.4-19.8 20.96-28.14 35.35a326.46 326.46 0 00-19.45 41.79A467.09 467.09 0 00537 242.99a705.7 705.7 0 00-18.09 75.67 1491.42 1491.42 0 00-6.83 38.67c-1.02 6.05-.19 8.05.35 8.78.44.49 2.1 1.7 8.04 1.8 17.56.2 34.87.2 52.57.2h30.03a73.14 73.14 0 0119.22 2.44 55.51 55.51 0 0138.23 35.15 57.72 57.72 0 01-1.18 43.8l-3.4 6.53a52.76 52.76 0 01-28.49 22.91c-10.92 3.66-22.86 4.34-30.86 4.59-24.87.53-49.74.63-74.66.73l-17.9.05c-2.43 0-4.14.48-5.16 1.46-1.02.98-1.75 2.88-2.2 5.66l-3.31 23.8c-3.07 22.62-6.39 45.83-10.97 68.65A3709.53 3709.53 0 01445.54 752a474.7 474.7 0 01-64.71 147.36 271.4 271.4 0 01-46.23 54.9 171.97 171.97 0 01-62.8 36.23 143.07 143.07 0 01-84.46 1.02 185 185 0 01-27.06-10.09c-19.75-9.12-37.74-22.43-58.7-43.25a159.55 159.55 0 00-5.71-5.51c-4-3.75-7.95-7.46-11.46-11.56-11.07-12.87-14.14-30.72-8.44-49 2.44-7.9 5.76-14.53 10.14-20.34 12.88-17.26 28.72-25.4 44.77-23.7a46.2 46.2 0 0117.21 5.56c10.24 5.37 19.8 11.9 26.87 16.93l8.58 6.09c5.6 4 11.17 8 16.87 11.9 29.36 19.7 47.5 17.9 72.07-7.66 17.21-17.94 31.45-40.66 44.86-71.34 3.9-8.77 7.51-17.74 11.07-26.67 22.97-59.34 34.91-121.27 42.72-168.52 3.4-20.77 6.38-41.5 9.46-62.32l5.65-38.22c.59-3.8.34-6.59-.63-7.8-1.32-1.62-4.73-1.96-7.32-1.96a7108.46 7108.46 0 01-88.74-.73c-25.6-.34-46.37-14.77-54.27-37.64a65.73 65.73 0 01-3.22-24.38c.34-6.78 2-13.46 4.97-19.6a57.04 57.04 0 0128.58-27.7 60.23 60.23 0 0120.67-5.12c7.12-.49 14.43-.34 21.6-.2l6.34.1 16.19-.1 60.46-.58a38.03 38.03 0 007.46-.59c2.3-.48 3.17-1.02 4.15-3.9a43.79 43.79 0 001.9-7.5c2.24-12.34 4.39-24.58 6.49-36.82 5.16-31.7 11.45-63.2 18.87-94.4 3.8-16 8-30.53 12.77-44.43a452.96 452.96 0 0116.58-42.8c13.46-29.75 29.2-55.65 48.28-79.25a157.01 157.01 0 0147.78-39.88zM867.62 571.2c17.45-22.33 42.08-26.23 64.31-10.48 20.43 14.63 24.92 42.37 10.49 64.6a8642.32 8642.32 0 01-64.03 96.65l-18.72 28.19c-10.58 15.9-10.58 15.9.05 31.89l.24.29 16.58 24.87c21.45 32.28 42.9 64.5 64.07 96.98 9.27 14.14 12.2 29.65 8.05 43.6a46.47 46.47 0 01-26.92 29.25 43.69 43.69 0 01-17.31 3.7 46.81 46.81 0 01-38.33-21.54c-14.92-21.7-29.45-43.7-44.03-65.54l-21.94-32.82a30.09 30.09 0 00-5.27-6.34c-1.8-1.56-2-1.46-3.5-.14a30.28 30.28 0 00-5.08 6.34l-60.12 90.45c-10.92 16.48-20.29 24.48-32.28 27.7a50.52 50.52 0 01-12.78 1.65 44.52 44.52 0 01-39.5-23.99c-9.5-16.43-8.43-33.54 3.13-51l25.2-37.89c19.66-29.6 39.26-59.3 59.35-88.65 6.73-9.75 6.73-15.99 0-25.6a6650.98 6650.98 0 01-83.14-124.53c-10.04-15.31-12.87-31.6-7.9-46.18 4.63-13.65 15.8-24.14 31.45-29.4 18.87-6.25 39.4 2.68 52.9 22.67 12.2 18.1 24.15 36.33 36.19 54.47l20.14 30.47c2.73 4.15 5.5 8.3 8.34 12.34 3.12 4.39 5.16 5.51 6 5.51.68 0 2.63-1.07 5.46-5.22 9.75-14.29 19.2-28.77 28.76-43.2l22.48-33.89c5.61-8.39 11.41-17.07 17.66-25.21z" fill="#1890FF"/></svg>