<svg class="icon" width="64" height="64" viewBox="0 0 1024 1024" xmlns="http://www.w3.org/2000/svg"><path d="M512 960C264.96 960 64 759.04 64 512S264.96 64 512 64s448 200.96 448 448-200.96 448-448 448zm0-831.71c-211.58 0-383.71 172.13-383.71 383.71 0 211.55 172.13 383.71 383.71 383.71 211.55 0 383.71-172.16 383.71-383.71 0-211.58-172.16-383.71-383.71-383.71zm45.05 385.09L695.42 376.5a32 32 0 10-44.99-45.5L511.87 468.03 375.42 331.17a31.96 31.96 0 00-45.25-.07 32 32 0 00-.06 45.25l136.26 136.67-137.38 135.9a32 32 0 00-.26 45.26 31.89 31.89 0 0022.75 9.5 32 32 0 0022.5-9.25l137.57-136.06L650.24 697.5a31.83 31.83 0 0022.65 9.4 31.94 31.94 0 0022.6-9.34 32 32 0 00.06-45.25l-138.5-138.94z"/></svg>