<svg class="icon" viewBox="0 0 1024 1024" xmlns="http://www.w3.org/2000/svg" width="64" height="64"><defs><style/></defs><path d="M162.7 560.4c-14.6 0-28.3-5.7-38.6-16L76 496.3a33.8 33.8 0 1147.8-47.8l39 39 38.8-38.8a33.8 33.8 0 1147.8 47.8l-47.9 47.9a54.7 54.7 0 01-38.8 16c.1 0 0 0 0 0z"/><path d="M154 545.1c-18.6 0-33.8-15.1-33.8-33.8 0-216.9 176.4-393.3 393.3-393.3 112.7 0 220.2 48.5 294.9 133.1 12.4 14 11 35.3-3 47.7-14 12.3-35.3 11-47.7-3a325.51 325.51 0 00-244.2-110.3c-179.6 0-325.8 146.1-325.8 325.8.1 18.7-15 33.8-33.7 33.8zm359.5 359.5c-117.1 0-227.2-51.6-302.3-141.6-11.9-14.3-10-35.6 4.3-47.6s35.6-10 47.6 4.3A325.05 325.05 0 00513.5 837c179.6 0 325.8-146.1 325.8-325.8 0-18.6 15.1-33.8 33.8-33.8 18.6 0 33.8 15.1 33.8 33.8 0 217-176.5 393.4-393.4 393.4z"/><path d="M927.2 584c-8.6 0-17.3-3.3-23.9-9.9l-39-39-38.8 38.8a33.8 33.8 0 11-47.8-47.8l47.9-47.9c10.3-10.3 24-16 38.6-16 14.6 0 28.3 5.7 38.6 16l48.1 48.1a33.8 33.8 0 010 47.8c-6.4 6.6-15 9.9-23.7 9.9z"/></svg>