<svg class="icon" viewBox="0 0 1076 1024" xmlns="http://www.w3.org/2000/svg" width="67.25" height="64"><defs><style/></defs><path d="M976.07 506.37L646.26 836.18c-1.74 1.74-3.79 2.82-5.48 4.5L216.41 416.32 551.2 81.49c40.19-40.19 105.16-40.29 145.04-.4l280.25 280.24c40.08 40.09 40.03 104.6-.41 145.04M221.33 836.23L81.26 696.11c-40.1-40.1-40.1-104.6.4-145.04l98.56-98.56L600.9 873.2c-116.78 78.34-276.51 66.1-379.57-36.96m791.34-511.1L732.42 44.9c-59.9-59.9-157.27-59.75-217.43.4L45.42 514.88C-15.15 575.44-14.9 672.35 45 732.3l140.12 140.13c137.06 137.05 359.97 137.3 497.33-.05l329.8-329.81c60.62-60.57 60.36-157.48.41-217.43"/></svg>