<?xml version="1.0" encoding="UTF-8"?>
<svg width="36px" height="29px" viewBox="0 0 36 29" version="1.1" xmlns="http://www.w3.org/2000/svg" xmlns:xlink="http://www.w3.org/1999/xlink">
    <!-- Generator: Sketch 61.2 (89653) - https://sketch.com -->
    <title>logo-面性</title>
    <desc>Created with Sketch.</desc>
    <defs>
        <ellipse id="path-1" cx="12.8956237" cy="14.1631303" rx="1.79770033" ry="1.77347827"></ellipse>
    </defs>
    <g id="页面-1" stroke="none" stroke-width="1" fill="none" fill-rule="evenodd">
        <g id="logo-面性">
            <g id="logo">
                <g id="fill-2" fill="#3D75FC">
                    <g id="fill">
                        <path d="M25.8579152,4.26367984 C28.8743822,5.12863784 31.1638725,7.5138536 31.9755347,10.5140124 C32.248498,11.5229704 32.3257327,12.9340286 32.2005564,14.1729453 L32.1914947,14.2590949 C32.1846515,14.3216629 32.1688811,14.4223109 32.1418604,14.5817995 L32.1079548,14.7791298 C33.3547912,16.3275737 33.7962137,18.403472 33.2324706,20.3694779 C32.2916983,23.6503408 28.8840848,25.5515735 25.6213527,24.6160001 C25.2800128,24.5181225 25.0830885,24.1605286 25.18151,23.8172918 C25.2799316,23.4740551 25.6364287,23.2751522 25.9777687,23.3730299 C28.5578208,24.112848 31.2524401,22.6094209 31.9963693,20.0150316 C32.4522713,18.4251124 32.0775219,16.7457873 31.0397564,15.5123913 C30.9007818,15.4106202 30.8064681,15.2550651 30.7823354,15.0809484 L30.7788105,15.0500364 C30.7657078,14.952235 30.775033,14.8521425 30.8063079,14.7580435 L30.8813977,14.3224433 C30.8989235,14.2175842 30.9100056,14.1466178 30.9127374,14.1216411 C31.033913,13.0137298 30.967721,11.7201698 30.7340491,10.8564449 C30.0386924,8.28618808 28.0805591,6.24618359 25.5014992,5.50665006 C22.3130214,4.59236877 18.9693032,5.83592465 17.1332301,8.53735279 L17.0776454,8.62027893 C17.0674935,8.63563726 17.0568028,8.65042093 17.0456152,8.66462134 L17.0409844,8.67037171 C17.0200112,8.69643708 16.9973522,8.72043913 16.9732752,8.7423812 L16.9392704,8.77126224 L16.9168535,8.78822242 L16.8853211,8.80962555 L16.8585508,8.82577555 L16.8311589,8.8404709 L16.8253862,8.8433537 C16.8024923,8.85473785 16.7790099,8.86466847 16.7550993,8.87314616 L16.7123936,8.88656253 L16.6876172,8.89293117 C16.673543,8.89629189 16.6593322,8.89913391 16.6450524,8.9014933 L16.613188,8.90595749 L16.5708185,8.90942141 C16.5569102,8.91009745 16.5429683,8.91032206 16.5290157,8.91009052 L16.5163625,8.909684 C16.4803647,8.90842656 16.4443581,8.90408903 16.4087248,8.89662048 L16.3707628,8.88740579 L16.3519146,8.88192904 L16.3115055,8.86800434 L16.2997661,8.86332403 C16.2649193,8.84922333 16.2310369,8.83188554 16.1985274,8.81129262 L16.1745009,8.79523593 L16.1459893,8.77420749 L16.1184006,8.7513109 C15.6933641,8.37865038 15.308322,8.14333048 14.8978294,8.02562363 C13.9232369,7.74616373 12.8991435,7.8829208 12.0380112,8.3852273 C11.2070113,8.86995727 10.654898,9.52744703 10.3883065,10.396208 L10.3709568,10.4544388 C10.3661418,10.4723223 10.3604757,10.4901004 10.3539824,10.5077139 L10.3430277,10.5353456 C10.3129894,10.6069819 10.2711158,10.6708888 10.2204354,10.7253766 C10.1795827,10.7694457 10.1334732,10.8068444 10.083722,10.8371859 L10.0437911,10.8596288 L10.0172594,10.8725617 L9.98128126,10.8877894 L9.95801555,10.8963462 L9.92876436,10.9056136 C9.88674719,10.9180172 9.84325868,10.9261255 9.79896488,10.9296177 L9.76113609,10.9313726 L9.72660848,10.9311784 L9.69546271,10.9293182 L9.6724769,10.9270104 L9.64689981,10.9233257 C9.59903077,10.9157352 9.55162145,10.9025013 9.5055593,10.8835057 L9.47768078,10.8712228 C9.46170122,10.8637966 9.44611794,10.8557305 9.43096625,10.8470786 L9.41051002,10.8346865 C9.09966167,10.6410463 8.76276051,10.4871072 8.43517766,10.3931743 C6.41725976,9.81454565 4.30973629,10.9904104 3.72789224,13.0195417 C3.15186664,15.0283817 4.28710733,17.1204085 6.26785347,17.723491 L6.34650579,17.7469424 L6.36509779,17.751908 L7.78800022,18.1599187 C8.12934017,18.2577964 8.32626444,18.6153903 8.22784289,18.958627 C8.13182186,19.2934921 7.79016077,19.4909782 7.45658342,19.4095233 L7.43158424,19.402889 L6.00868182,18.9948783 L5.99037876,18.9893318 L5.97171802,18.9842791 C3.27112021,18.2098951 1.71310378,15.3807002 2.49179093,12.6650954 C3.27047809,9.94949055 6.09099583,8.37582011 8.79159364,9.15020408 C8.99857033,9.20955369 9.20522848,9.28509498 9.40805942,9.37440769 C9.82574807,8.49096405 10.4998299,7.78980845 11.3945389,7.26791636 C12.5554679,6.59073572 13.9401099,6.40583111 15.2542454,6.78265341 C15.6651579,6.90048067 16.0422274,7.08652883 16.4126004,7.34186357 C18.6163082,4.5097098 22.32213,3.24980975 25.8579152,4.26367984 Z" id="形状结合" stroke="#3D75FC" stroke-width="0.8" fill-rule="nonzero" transform="translate(17.882732, 14.385407) rotate(344.000000) translate(-17.882732, -14.385407) "></path>
                        <polygon id="路径-3" points="5.9918684 12.286879 3.65384023 15.2256545 3.65384023 17.6942259 5.52426276 20.1627974 8.6059529 22.4876953 28.5960938 22.4876953 30.774967 19.8101443 32.9960937 16.9889198 32.9960937 13.2272871 31.4763754 10.9938178 29.3721501 6.29177695 26.6834177 3.94075654 23.5270797 2.64769531 20.7214459 3.23545041 17.6820092 3.94075654 15.4608825 6.0566749 14.8763754 7.46728715 13.5904599 8.29014429 11.3693332 8.99545041 9.03130502 9.70075654 7.86229093 10.9938178"></polygon>
                    </g>
                </g>
                <g id="编组-4" transform="translate(12.013922, 10.012935)" fill-rule="nonzero">
                    <path d="M10.3195787,2.607803 C10.3195787,2.607803 10.2622441,2.72214183 10.3918712,2.90514975 C10.7068819,3.34684352 10.889613,4.91498492 9.55118113,4.84052145 C9.50233324,4.83781386 9.5204764,4.8391736 9.50233324,4.83781386 C9.4660456,4.83647129 9.42417504,4.83513401 9.3739301,4.83380466 C9.28320901,4.83251364 9.06128803,4.83272376 9.02079073,4.85479286 C7.18164906,5.86306433 9.91525507,5.06048429 9.91525507,5.06048429 L11.4402085,5.66213237 C11.4402085,5.66213237 11.5030401,5.63728828 11.3886802,5.54376585 C11.1069688,5.30857888 10.7508607,4.06004759 12.2894884,3.50231422 C14.128305,2.83276591 10.3195787,2.607803 10.3195787,2.607803 Z" id="路径备份-16" stroke="#FFFFFF" stroke-width="0.5" fill="#FFFFFF" transform="translate(10.587856, 4.134968) rotate(364.000000) translate(-10.587856, -4.134968) "></path>
                    <ellipse id="椭圆形备份-18" stroke="#FFFFFF" stroke-width="0.5" fill="#FFFFFF" transform="translate(11.971886, 1.895496) rotate(364.000000) translate(-11.971886, -1.895496) " cx="11.9718863" cy="1.89549581" rx="1.79770033" ry="1.77347827"></ellipse>
                    <ellipse id="椭圆形备份-20" stroke="#FFFFFF" stroke-width="0.5" fill="#FFFFFF" transform="translate(1.907682, 8.895890) rotate(364.000000) translate(-1.907682, -8.895890) " cx="1.90768236" cy="8.89588983" rx="1.78374303" ry="1.75970902"></ellipse>
                    <ellipse id="椭圆形备份-21" stroke="#FFFFFF" stroke-width="0.5" fill="#FFFFFF" transform="translate(5.747712, 1.368187) rotate(364.000000) translate(-5.747712, -1.368187) " cx="5.74771233" cy="1.36818705" rx="1.21986808" ry="1.20343168"></ellipse>
                    <ellipse id="椭圆形备份-22" stroke="#FFFFFF" stroke-width="0.5" fill="#FFFFFF" transform="translate(14.915534, 7.920190) rotate(364.000000) translate(-14.915534, -7.920190) " cx="14.9155335" cy="7.92018982" rx="1.21986808" ry="1.20343168"></ellipse>
                    <path d="M5.49681273,2.65404369 C5.48145045,2.66369669 5.4870109,2.68709911 5.50515539,2.68708193 C5.65449183,2.69382514 5.99220945,2.74445151 6.08696708,2.90270785 C6.41722371,3.45591789 7.18884558,5.13503241 6.60052195,5.88738898 C5.89062318,6.79269902 9.03429326,4.82760837 9.28991261,4.61807417 C9.29689655,4.61255987 9.02890064,4.62933668 8.97027604,4.63352295 C8.68971592,4.6530655 7.7323724,4.5217874 7.48847788,4.1488724 C7.21810414,3.73467481 6.67748617,2.77134112 6.65240533,2.72730336 C6.65101092,2.72592775 6.62593405,2.67775922 6.62593537,2.6763823 C6.50482671,2.34328179 6.57189044,2.27161833 6.64887361,2.04435328 C6.66846932,1.98650399 6.66852615,1.92729628 6.7132146,1.90109245 C6.91012874,1.77973685 5.75657302,2.49269785 5.49681273,2.65404369 Z" id="路径备份-15" stroke="#FFFFFF" stroke-width="0.5" fill="#FFFFFF" transform="translate(7.388967, 4.005837) rotate(364.000000) translate(-7.388967, -4.005837) "></path>
                    <path d="M5.71724474,6.66068888 C5.71724474,6.66068888 4.96998394,8.68409514 2.75611369,7.4855151 C1.30391657,6.69791364 2.70026645,10.4129046 2.70026645,10.4129046 L3.38030517,10.0804225 C3.38030517,10.0804225 4.65979612,7.58009721 6.13716548,9.77075859 L5.71724474,6.66068888 Z" id="路径备份-17" stroke="#FFFFFF" stroke-width="0.5" fill="#FFFFFF" transform="translate(4.116527, 8.536797) rotate(364.000000) translate(-4.116527, -8.536797) "></path>
                    <path d="M6.84470087,10.5223679 C5.30485034,10.5238346 4.04683885,11.7712445 4.04535577,13.3216863 C4.04387537,14.8747708 5.30358583,16.1238331 6.84600773,16.1223679 C8.3858612,16.1208999 9.64387268,14.87349 9.64535577,13.3230481 C9.64678507,11.8235182 8.47250265,10.607405 7.00321609,10.5266382 L6.84470087,10.5223679 Z" id="椭圆形备份-23" fill="#3D75FC" transform="translate(6.845356, 13.322368) rotate(364.000000) translate(-6.845356, -13.322368) "></path>
                    <path d="M6.9331229,12.0415832 C7.59586399,12.0409483 8.13261312,12.5776905 8.13198672,13.2404315 C8.13135813,13.9031726 7.59359163,14.440946 6.93085054,14.4415832 C6.26810945,14.4422182 5.73136032,13.905476 5.73198672,13.2427349 C5.73261531,12.5799938 6.27038181,12.0422204 6.9331229,12.0415832 Z" id="路径" fill="#FFFFFF"></path>
                    <path d="M6.2894037,10.4371042 C6.2894037,10.4371042 7.56750693,11.5535066 6.43469553,12.4661016 C5.43597723,13.2711698 7.79854843,12.9678352 7.79854843,12.9678352 C7.79854843,12.9678352 7.09785238,11.5557765 8.81748751,11.453633 C9.2125014,11.4298513 7.98035776,11.1336027 7.98035776,11.1336027 L6.2894037,10.4371042 Z" id="路径备份-18" stroke="#FFFFFF" stroke-width="0.5" fill="#FFFFFF" transform="translate(7.542042, 11.730478) rotate(364.000000) translate(-7.542042, -11.730478) "></path>
                    <g id="椭圆形备份-19" transform="translate(12.895624, 14.163130) rotate(364.000000) translate(-12.895624, -14.163130) ">
                        <use fill="#FFFFFF" xlink:href="#path-1"></use>
                        <ellipse stroke="#3D75FC" stroke-width="1.6" cx="12.8956237" cy="14.1631303" rx="2.59770033" ry="2.57347827"></ellipse>
                        <use stroke="#FFFFFF" stroke-width="0.64" xlink:href="#path-1"></use>
                    </g>
                    <path d="M9.35581009,11.7159259 C9.35581009,11.7159259 11.8126903,11.300523 11.3611656,13.48888 C11.0868844,14.8169384 14.0389649,13.6722351 14.4872919,13.0115729 C14.5959311,12.8514803 12.8353843,12.325132 12.8353843,12.325132 C12.8353843,12.325132 10.9154057,12.5791564 11.6098891,10.2845465 C12.3309746,7.9031652 11.2819944,10.1788339 11.2819944,10.1788339 L9.48308842,11.4376671 L9.35581009,11.7159259 Z" id="路径备份-19" stroke="#FFFFFF" stroke-width="0.5" fill="#FFFFFF" transform="translate(11.923965, 11.650132) rotate(364.000000) translate(-11.923965, -11.650132) "></path>
                    <path d="M12.2680344,7.29232085 C12.2680344,7.29232085 12.316733,7.45062079 12.3877844,7.58686882 C12.5479959,7.89652463 13.2009647,8.1382447 13.8704375,7.18064988 C14.6279616,6.09767178 14.8999322,7.75660555 14.8999322,7.75660555 L14.1412806,8.56006951 C14.1412806,8.56006951 14.2958696,8.91103831 14.0350968,8.67307767 C13.8050024,8.46400335 12.7110465,8.15660855 12.3862157,9.22127698 C12.1131882,10.1179119 12.2229813,7.69855556 12.2229813,7.69855556 L12.2680344,7.29232085 Z" id="路径备份-20" stroke="#FFFFFF" stroke-width="0.5" fill="#FFFFFF" transform="translate(13.550549, 8.117134) rotate(364.000000) translate(-13.550549, -8.117134) "></path>
                    <path d="M9.00586429,4.33603803 C6.87184155,4.33603803 5.14187431,6.0424683 5.14187431,8.14745671 C5.14187431,10.2524451 6.87184155,11.9588754 9.00586429,11.9588754 C11.139887,11.9588754 12.8698543,10.2524451 12.8698543,8.14745671 C12.8698543,6.0424683 11.139887,4.33603803 9.00586429,4.33603803 Z M9.00586429,5.80168688 C10.3192666,5.80168688 11.3839896,6.85192381 11.3839896,8.14745671 C11.3839896,9.44298961 10.3192666,10.4932265 9.00586429,10.4932265 C7.69246197,10.4932265 6.62773902,9.44298961 6.62773902,8.14745671 C6.62773902,6.85192381 7.69246197,5.80168688 9.00586429,5.80168688 Z" id="椭圆形备份-24" stroke="#FFFFFF" stroke-width="0.5" fill="#FFFFFF" transform="translate(9.005864, 8.147457) rotate(364.000000) translate(-9.005864, -8.147457) "></path>
                </g>
            </g>
        </g>
    </g>
</svg>